0
SECTION
2
HEADER
0
ENDSEC
0
SECTION
2
TABLES
0
ENDSEC
0
SECTION
2
BLOCKS
0
ENDSEC
0
SECTION
2
ENTITIES
0
POLYLINE
8
0
66
1
70
1
0
VERTEX
8
0
10
216.2490
20
213.2510
0
VERTEX
8
0
10
179.2372
20
250.2937
0
VERTEX
8
0
10
144.7085
20
284.9105
0
VERTEX
8
0
10
113.4186
20
316.3395
0
VERTEX
8
0
10
86.1231
20
343.8189
0
VERTEX
8
0
10
63.5778
20
366.5867
0
VERTEX
8
0
10
46.5384
20
383.8810
0
VERTEX
8
0
10
35.7605
20
394.9401
0
VERTEX
8
0
10
32.0000
20
399.0020
0
VERTEX
8
0
10
47.7751
20
415.4204
0
VERTEX
8
0
10
89.3808
20
457.4852
0
VERTEX
8
0
10
148.2375
20
516.6170
0
VERTEX
8
0
10
215.7656
20
584.2364
0
VERTEX
8
0
10
283.3857
20
651.7638
0
VERTEX
8
0
10
342.5181
20
710.6198
0
VERTEX
8
0
10
384.5834
20
752.2250
0
VERTEX
8
0
10
401.0020
20
768.0000
0
VERTEX
8
0
10
405.0689
20
764.2343
0
VERTEX
8
0
10
416.1425
20
753.4418
0
VERTEX
8
0
10
433.4596
20
736.3792
0
VERTEX
8
0
10
456.2576
20
713.8031
0
VERTEX
8
0
10
483.7735
20
686.4705
0
VERTEX
8
0
10
515.2445
20
655.1379
0
VERTEX
8
0
10
549.9076
20
620.5622
0
VERTEX
8
0
10
587.0000
20
583.5000
0
VERTEX
8
0
10
771.4980
20
399.0000
0
VERTEX
8
0
10
586.5000
20
214.0000
0
VERTEX
8
0
10
549.3275
20
176.8374
0
VERTEX
8
0
10
514.6291
20
142.1680
0
VERTEX
8
0
10
483.1655
20
110.7505
0
VERTEX
8
0
10
455.6976
20
83.3438
0
VERTEX
8
0
10
432.9863
20
60.7065
0
VERTEX
8
0
10
415.7924
20
43.5977
0
VERTEX
8
0
10
404.8766
20
32.7759
0
VERTEX
8
0
10
401.0000
20
29.0000
0
VERTEX
8
0
10
397.1386
20
32.7606
0
VERTEX
8
0
10
386.2667
20
43.5386
0
VERTEX
8
0
10
369.1421
20
60.5782
0
VERTEX
8
0
10
346.5224
20
83.1237
0
VERTEX
8
0
10
319.1655
20
110.4195
0
VERTEX
8
0
10
287.8291
20
141.7098
0
VERTEX
8
0
10
253.2710
20
176.2389
0
VERTEX
8
0
10
216.2490
20
213.2510
0
SEQEND
0
POLYLINE
8
0
66
1
70
1
0
VERTEX
8
0
10
475.5000
20
158.0000
0
VERTEX
8
0
10
490.3378
20
172.8650
0
VERTEX
8
0
10
504.1298
20
186.7328
0
VERTEX
8
0
10
516.5775
20
199.2998
0
VERTEX
8
0
10
527.3827
20
210.2625
0
VERTEX
8
0
10
536.2473
20
219.3174
0
VERTEX
8
0
10
542.8729
20
226.1609
0
VERTEX
8
0
10
546.9612
20
230.4896
0
VERTEX
8
0
10
548.2140
20
232.0000
0
VERTEX
8
0
10
547.8567
20
231.9492
0
VERTEX
8
0
10
547.3297
20
231.8038
0
VERTEX
8
0
10
546.6584
20
231.5738
0
VERTEX
8
0
10
545.8681
20
231.2695
0
VERTEX
8
0
10
544.9844
20
230.9011
0
VERTEX
8
0
10
544.0325
20
230.4787
0
VERTEX
8
0
10
543.0379
20
230.0126
0
VERTEX
8
0
10
542.0260
20
229.5130
0
VERTEX
8
0
10
538.3706
20
227.7972
0
VERTEX
8
0
10
534.6736
20
226.3422
0
VERTEX
8
0
10
530.8884
20
225.1381
0
VERTEX
8
0
10
526.9680
20
224.1750
0
VERTEX
8
0
10
522.8658
20
223.4431
0
VERTEX
8
0
10
518.5349
20
222.9326
0
VERTEX
8
0
10
513.9285
20
222.6335
0
VERTEX
8
0
10
509.0000
20
222.5360
0
VERTEX
8
0
10
505.5038
20
222.5590
0
VERTEX
8
0
10
502.4713
20
222.6351
0
VERTEX
8
0
10
499.8050
20
222.7753
0
VERTEX
8
0
10
497.4075
20
222.9904
0
VERTEX
8
0
10
495.1814
20
223.2913
0
VERTEX
8
0
10
493.0292
20
223.6890
0
VERTEX
8
0
10
490.8536
20
224.1942
0
VERTEX
8
0
10
488.5570
20
224.8180
0
VERTEX
8
0
10
481.6064
20
227.1581
0
VERTEX
8
0
10
475.0383
20
230.0582
0
VERTEX
8
0
10
468.9067
20
233.4768
0
VERTEX
8
0
10
463.2656
20
237.3725
0
VERTEX
8
0
10
458.1691
20
241.7040
0
VERTEX
8
0
10
453.6712
20
246.4298
0
VERTEX
8
0
10
449.8258
20
251.5086
0
VERTEX
8
0
10
446.6870
20
256.8990
0
VERTEX
8
0
10
445.9463
20
258.4072
0
VERTEX
8
0
10
445.2553
20
259.8681
0
VERTEX
8
0
10
444.6292
20
261.2459
0
VERTEX
8
0
10
444.0830
20
262.5048
0
VERTEX
8
0
10
443.6319
20
263.6088
0
VERTEX
8
0
10
443.2909
20
264.5223
0
VERTEX
8
0
10
443.0752
20
265.2093
0
VERTEX
8
0
10
443.0000
20
265.6340
0
VERTEX
8
0
10
442.9818
20
265.9083
0
VERTEX
8
0
10
442.9295
20
266.1643
0
VERTEX
8
0
10
442.8470
20
266.3962
0
VERTEX
8
0
10
442.7378
20
266.5986
0
VERTEX
8
0
10
442.6056
20
266.7658
0
VERTEX
8
0
10
442.4541
20
266.8922
0
VERTEX
8
0
10
442.2870
20
266.9721
0
VERTEX
8
0
10
442.1080
20
267.0000
0
VERTEX
8
0
10
441.8936
20
266.8570
0
VERTEX
8
0
10
441.6260
20
266.4471
0
VERTEX
8
0
10
441.3156
20
265.7992
0
VERTEX
8
0
10
440.9734
20
264.9419
0
VERTEX
8
0
10
440.6099
20
263.9040
0
VERTEX
8
0
10
440.2359
20
262.7142
0
VERTEX
8
0
10
439.8620
20
261.4013
0
VERTEX
8
0
10
439.4990
20
259.9940
0
VERTEX
8
0
10
436.2168
20
249.8535
0
VERTEX
8
0
10
431.5331
20
240.2308
0
VERTEX
8
0
10
425.5782
20
231.2585
0
VERTEX
8
0
10
418.4825
20
223.0694
0
VERTEX
8
0
10
410.3764
20
215.7959
0
VERTEX
8
0
10
401.3902
20
209.5708
0
VERTEX
8
0
10
391.6543
20
204.5266
0
VERTEX
8
0
10
381.2990
20
200.7960
0
VERTEX
8
0
10
376.8328
20
199.7611
0
VERTEX
8
0
10
371.8449
20
199.0219
0
VERTEX
8
0
10
366.5094
20
198.5783
0
VERTEX
8
0
10
361.0000
20
198.4305
0
VERTEX
8
0
10
355.4906
20
198.5783
0
VERTEX
8
0
10
350.1551
20
199.0219
0
VERTEX
8
0
10
345.1672
20
199.7611
0
VERTEX
8
0
10
340.7010
20
200.7960
0
VERTEX
8
0
10
330.6013
20
204.3764
0
VERTEX
8
0
10
321.2013
20
209.1196
0
VERTEX
8
0
10
312.5776
20
214.9489
0
VERTEX
8
0
10
304.8069
20
221.7875
0
VERTEX
8
0
10
297.9660
20
229.5588
0
VERTEX
8
0
10
292.1315
20
238.1859
0
VERTEX
8
0
10
287.3803
20
247.5923
0
VERTEX
8
0
10
283.7890
20
257.7010
0
VERTEX
8
0
10
282.8430
20
261.9197
0
VERTEX
8
0
10
282.1384
20
266.9408
0
VERTEX
8
0
10
281.6792
20
272.4848
0
VERTEX
8
0
10
281.4695
20
278.2725
0
VERTEX
8
0
10
281.5133
20
284.0246
0
VERTEX
8
0
10
281.8146
20
289.4617
0
VERTEX
8
0
10
282.3775
20
294.3046
0
VERTEX
8
0
10
283.2060
20
298.2740
0
VERTEX
8
0
10
284.8220
20
304.0470
0
VERTEX
8
0
10
281.3030
20
305.5180
0
VERTEX
8
0
10
279.0381
20
306.5936
0
VERTEX
8
0
10
276.7278
20
307.9336
0
VERTEX
8
0
10
274.4196
20
309.4987
0
VERTEX
8
0
10
272.1610
20
311.2498
0
VERTEX
8
0
10
269.9995
20
313.1475
0
VERTEX
8
0
10
267.9827
20
315.1528
0
VERTEX
8
0
10
266.1580
20
317.2263
0
VERTEX
8
0
10
264.5730
20
319.3290
0
VERTEX
8
0
10
259.8670
20
328.2093
0
VERTEX
8
0
10
257.4698
20
337.4766
0
VERTEX
8
0
10
257.2627
20
346.7709
0
VERTEX
8
0
10
259.1271
20
355.7325
0
VERTEX
8
0
10
262.9444
20
364.0015
0
VERTEX
8
0
10
268.5959
20
371.2179
0
VERTEX
8
0
10
275.9629
20
377.0221
0
VERTEX
8
0
10
284.9270
20
381.0540
0
VERTEX
8
0
10
292.3554
20
382.5942
0
VERTEX
8
0
10
299.8396
20
382.7115
0
VERTEX
8
0
10
307.1755
20
381.4983
0
VERTEX
8
0
10
314.1588
20
379.0465
0
VERTEX
8
0
10
320.5853
20
375.4484
0
VERTEX
8
0
10
326.2508
20
370.7960
0
VERTEX
8
0
10
330.9511
20
365.1815
0
VERTEX
8
0
10
334.4820
20
358.6970
0
VERTEX
8
0
10
335.9530
20
355.1780
0
VERTEX
8
0
10
341.7260
20
356.7940
0
VERTEX
8
0
10
345.6954
20
357.6225
0
VERTEX
8
0
10
350.5383
20
358.1854
0
VERTEX
8
0
10
355.9754
20
358.4867
0
VERTEX
8
0
10
361.7275
20
358.5305
0
VERTEX
8
0
10
367.5152
20
358.3208
0
VERTEX
8
0
10
373.0592
20
357.8616
0
VERTEX
8
0
10
378.0803
20
357.1570
0
VERTEX
8
0
10
382.2990
20
356.2110
0
VERTEX
8
0
10
392.5821
20
352.5183
0
VERTEX
8
0
10
402.1941
20
347.5716
0
VERTEX
8
0
10
411.0234
20
341.4848
0
VERTEX
8
0
10
418.9581
20
334.3716
0
VERTEX
8
0
10
425.8866
20
326.3459
0
VERTEX
8
0
10
431.6970
20
317.5215
0
VERTEX
8
0
10
436.2778
20
308.0123
0
VERTEX
8
0
10
439.5170
20
297.9320
0
VERTEX
8
0
10
439.8799
20
296.5266
0
VERTEX
8
0
10
440.2465
20
295.2480
0
VERTEX
8
0
10
440.6067
20
294.1219
0
VERTEX
8
0
10
440.9505
20
293.1739
0
VERTEX
8
0
10
441.2679
20
292.4296
0
VERTEX
8
0
10
441.5488
20
291.9148
0
VERTEX
8
0
10
441.7831
20
291.6550
0
VERTEX
8
0
10
441.9610
20
291.6760
0
VERTEX
8
0
10
442.1390
20
291.9389
0
VERTEX
8
0
10
442.3744
20
292.3725
0
VERTEX
8
0
10
442.6572
20
292.9539
0
VERTEX
8
0
10
442.9771
20
293.6600
0
VERTEX
8
0
10
443.3241
20
294.4680
0
VERTEX
8
0
10
443.6880
20
295.3548
0
VERTEX
8
0
10
444.0587
20
296.2974
0
VERTEX
8
0
10
444.4260
20
297.2730
0
VERTEX
8
0
10
446.3446
20
301.7152
0
VERTEX
8
0
10
448.7663
20
306.0178
0
VERTEX
8
0
10
451.6587
20
310.1464
0
VERTEX
8
0
10
454.9899
20
314.0663
0
VERTEX
8
0
10
458.7275
20
317.7428
0
VERTEX
8
0
10
462.8393
20
321.1416
0
VERTEX
8
0
10
467.2932
20
324.2278
0
VERTEX
8
0
10
472.0570
20
326.9670
0
VERTEX
8
0
10
476.6621
20
329.2410
0
VERTEX
8
0
10
481.0015
20
331.1024
0
VERTEX
8
0
10
485.2189
20
332.5837
0
VERTEX
8
0
10
489.4578
20
333.7171
0
VERTEX
8
0
10
493.8617
20
334.5353
0
VERTEX
8
0
10
498.5744
20
335.0705
0
VERTEX
8
0
10
503.7393
20
335.3553
0
VERTEX
8
0
10
509.5000
20
335.4220
0
VERTEX
8
0
10
513.7200
20
335.3824
0
VERTEX
8
0
10
517.1905
20
335.2971
0
VERTEX
8
0
10
520.0852
20
335.1443
0
VERTEX
8
0
10
522.5777
20
334.9025
0
VERTEX
8
0
10
524.8418
20
334.5499
0
VERTEX
8
0
10
527.0511
20
334.0647
0
VERTEX
8
0
10
529.3793
20
333.4253
0
VERTEX
8
0
10
532.0000
20
332.6100
0
VERTEX
8
0
10
536.0921
20
331.2941
0
VERTEX
8
0
10
539.1521
20
330.3874
0
VERTEX
8
0
10
541.3684
20
329.9359
0
VERTEX
8
0
10
542.9295
20
329.9854
0
VERTEX
8
0
10
544.0239
20
330.5817
0
VERTEX
8
0
10
544.8402
20
331.7709
0
VERTEX
8
0
10
545.5667
20
333.5987
0
VERTEX
8
0
10
546.3920
20
336.1110
0
VERTEX
8
0
10
547.9316
20
340.1280
0
VERTEX
8
0
10
549.8035
20
343.7718
0
VERTEX
8
0
10
552.0052
20
347.0399
0
VERTEX
8
0
10
554.5337
20
349.9295
0
VERTEX
8
0
10
557.3866
20
352.4379
0
VERTEX
8
0
10
560.5611
20
354.5624
0
VERTEX
8
0
10
564.0544
20
356.3003
0
VERTEX
8
0
10
567.8640
20
357.6490
0
VERTEX
8
0
10
573.6035
20
358.7572
0
VERTEX
8
0
10
579.3460
20
358.8087
0
VERTEX
8
0
10
584.9641
20
357.8610
0
VERTEX
8
0
10
590.3304
20
355.9714
0
VERTEX
8
0
10
595.3175
20
353.1973
0
VERTEX
8
0
10
599.7981
20
349.5961
0
VERTEX
8
0
10
603.6447
20
345.2252
0
VERTEX
8
0
10
606.7300
20
340.1420
0
VERTEX
8
0
10
607.9328
20
337.2245
0
VERTEX
8
0
10
608.8159
20
334.0739
0
VERTEX
8
0
10
609.3776
20
330.7709
0
VERTEX
8
0
10
609.6160
20
327.3957
0
VERTEX
8
0
10
609.5293
20
324.0290
0
VERTEX
8
0
10
609.1156
20
320.7509
0
VERTEX
8
0
10
608.3731
20
317.6421
0
VERTEX
8
0
10
607.3000
20
314.7830
0
VERTEX
8
0
10
605.2425
20
311.0218
0
VERTEX
8
0
10
602.6460
20
307.4674
0
VERTEX
8
0
10
599.6010
20
304.1895
0
VERTEX
8
0
10
596.1976
20
301.2575
0
VERTEX
8
0
10
592.5262
20
298.7410
0
VERTEX
8
0
10
588.6769
20
296.7096
0
VERTEX
8
0
10
584.7401
20
295.2327
0
VERTEX
8
0
10
580.8060
20
294.3800
0
VERTEX
8
0
10
575.9590
20
293.7370
0
VERTEX
8
0
10
576.7290
20
290.1180
0
VERTEX
8
0
10
576.8823
20
289.2177
0
VERTEX
8
0
10
577.0222
20
288.0425
0
VERTEX
8
0
10
577.1460
20
286.6419
0
VERTEX
8
0
10
577.2508
20
285.0659
0
VERTEX
8
0
10
577.3337
20
283.3639
0
VERTEX
8
0
10
577.3919
20
281.5859
0
VERTEX
8
0
10
577.4226
20
279.7813
0
VERTEX
8
0
10
577.4230
20
278.0000
0
VERTEX
8
0
10
577.3743
20
275.5979
0
VERTEX
8
0
10
577.2659
20
273.4862
0
VERTEX
8
0
10
577.0838
20
271.5893
0
VERTEX
8
0
10
576.8140
20
269.8315
0
VERTEX
8
0
10
576.4424
20
268.1373
0
VERTEX
8
0
10
575.9549
20
266.4311
0
VERTEX
8
0
10
575.3374
20
264.6372
0
VERTEX
8
0
10
574.5760
20
262.6800
0
VERTEX
8
0
10
574.0277
20
261.3021
0
VERTEX
8
0
10
573.5315
20
260.0012
0
VERTEX
8
0
10
573.0972
20
258.8070
0
VERTEX
8
0
10
572.7346
20
257.7490
0
VERTEX
8
0
10
572.4534
20
256.8567
0
VERTEX
8
0
10
572.2634
20
256.1598
0
VERTEX
8
0
10
572.1744
20
255.6877
0
VERTEX
8
0
10
572.1960
20
255.4700
0
VERTEX
8
0
10
573.7431
20
256.8606
0
VERTEX
8
0
10
578.0252
20
260.9970
0
VERTEX
8
0
10
584.7458
20
267.5858
0
VERTEX
8
0
10
593.6080
20
276.3334
0
VERTEX
8
0
10
604.3152
20
286.9461
0
VERTEX
8
0
10
616.5708
20
299.1305
0
VERTEX
8
0
10
630.0779
20
312.5930
0
VERTEX
8
0
10
644.5400
20
327.0400
0
VERTEX
8
0
10
716.4950
20
399.0000
0
VERTEX
8
0
10
648.0000
20
467.5000
0
VERTEX
8
0
10
634.2255
20
481.2602
0
VERTEX
8
0
10
621.3455
20
494.0973
0
VERTEX
8
0
10
609.6439
20
505.7302
0
VERTEX
8
0
10
599.4048
20
515.8781
0
VERTEX
8
0
10
590.9121
20
524.2600
0
VERTEX
8
0
10
584.4499
20
530.5949
0
VERTEX
8
0
10
580.3022
20
534.6019
0
VERTEX
8
0
10
578.7530
20
536.0000
0
VERTEX
8
0
10
578.6018
20
535.4310
0
VERTEX
8
0
10
578.4607
20
533.8003
0
VERTEX
8
0
10
578.3328
20
531.2221
0
VERTEX
8
0
10
578.2213
20
527.8109
0
VERTEX
8
0
10
578.1291
20
523.6809
0
VERTEX
8
0
10
578.0594
20
518.9465
0
VERTEX
8
0
10
578.0154
20
513.7221
0
VERTEX
8
0
10
578.0000
20
508.1220
0
VERTEX
8
0
10
577.9861
20
500.5267
0
VERTEX
8
0
10
577.9403
20
494.3332
0
VERTEX
8
0
10
577.8562
20
489.4078
0
VERTEX
8
0
10
577.7278
20
485.6166
0
VERTEX
8
0
10
577.5485
20
482.8260
0
VERTEX
8
0
10
577.3123
20
480.9022
0
VERTEX
8
0
10
577.0129
20
479.7114
0
VERTEX
8
0
10
576.6440
20
479.1200
0
VERTEX
8
0
10
574.0527
20
478.8375
0
VERTEX
8
0
10
566.7462
20
478.6087
0
VERTEX
8
0
10
554.3049
20
478.4316
0
VERTEX
8
0
10
536.3094
20
478.3040
0
VERTEX
8
0
10
512.3400
20
478.2239
0
VERTEX
8
0
10
481.9774
20
478.1891
0
VERTEX
8
0
10
444.8019
20
478.1975
0
VERTEX
8
0
10
400.3940
20
478.2470
0
VERTEX
8
0
10
225.5000
20
478.5000
0
VERTEX
8
0
10
225.2350
20
507.2500
0
VERTEX
8
0
10
225.1510
20
514.7917
0
VERTEX
8
0
10
225.0478
20
521.0087
0
VERTEX
8
0
10
224.9202
20
525.9993
0
VERTEX
8
0
10
224.7631
20
529.8619
0
VERTEX
8
0
10
224.5714
20
532.6949
0
VERTEX
8
0
10
224.3399
20
534.5966
0
VERTEX
8
0
10
224.0635
20
535.6656
0
VERTEX
8
0
10
223.7370
20
536.0000
0
VERTEX
8
0
10
217.3494
20
530.1868
0
VERTEX
8
0
10
201.6192
20
514.8458
0
VERTEX
8
0
10
179.6886
20
493.1251
0
VERTEX
8
0
10
154.6995
20
468.1725
0
VERTEX
8
0
10
129.7941
20
443.1361
0
VERTEX
8
0
10
108.1143
20
421.1639
0
VERTEX
8
0
10
92.8022
20
405.4039
0
VERTEX
8
0
10
87.0000
20
399.0040
0
VERTEX
8
0
10
100.4386
20
385.0920
0
VERTEX
8
0
10
135.8787
20
349.2311
0
VERTEX
8
0
10
186.0070
20
298.7582
0
VERTEX
8
0
10
243.5100
20
241.0100
0
VERTEX
8
0
10
301.0743
20
183.3233
0
VERTEX
8
0
10
351.3865
20
133.0349
0
VERTEX
8
0
10
387.1332
20
97.4815
0
VERTEX
8
0
10
401.0010
20
84.0000
0
VERTEX
8
0
10
402.6124
20
85.5104
0
VERTEX
8
0
10
407.0353
20
89.8391
0
VERTEX
8
0
10
413.9640
20
96.6826
0
VERTEX
8
0
10
423.0930
20
105.7375
0
VERTEX
8
0
10
434.1167
20
116.7002
0
VERTEX
8
0
10
446.7294
20
129.2672
0
VERTEX
8
0
10
460.6257
20
143.1350
0
VERTEX
8
0
10
475.5000
20
158.0000
0
SEQEND
0
POLYLINE
8
0
66
1
70
1
0
VERTEX
8
0
10
257.6670
20
398.6670
0
VERTEX
8
0
10
257.5330
20
399.2872
0
VERTEX
8
0
10
257.4080
20
400.8064
0
VERTEX
8
0
10
257.2947
20
403.1240
0
VERTEX
8
0
10
257.1959
20
406.1395
0
VERTEX
8
0
10
257.1143
20
409.7524
0
VERTEX
8
0
10
257.0526
20
413.8621
0
VERTEX
8
0
10
257.0136
20
418.3681
0
VERTEX
8
0
10
257.0000
20
423.1700
0
VERTEX
8
0
10
257.0000
20
447.0070
0
VERTEX
8
0
10
401.2500
20
446.7530
0
VERTEX
8
0
10
545.5000
20
446.5000
0
VERTEX
8
0
10
545.7690
20
423.6250
0
VERTEX
8
0
10
545.8186
20
418.0197
0
VERTEX
8
0
10
545.8250
20
413.2081
0
VERTEX
8
0
10
545.7871
20
409.1613
0
VERTEX
8
0
10
545.7039
20
405.8499
0
VERTEX
8
0
10
545.5743
20
403.2447
0
VERTEX
8
0
10
545.3973
20
401.3167
0
VERTEX
8
0
10
545.1719
20
400.0365
0
VERTEX
8
0
10
544.8970
20
399.3750
0
VERTEX
8
0
10
543.3579
20
398.9843
0
VERTEX
8
0
10
538.8752
20
398.6729
0
VERTEX
8
0
10
530.5717
20
398.4324
0
VERTEX
8
0
10
517.5704
20
398.2544
0
VERTEX
8
0
10
498.9940
20
398.1305
0
VERTEX
8
0
10
473.9656
20
398.0524
0
VERTEX
8
0
10
441.6080
20
398.0117
0
VERTEX
8
0
10
401.0440
20
398.0000
0
VERTEX
8
0
10
372.3628
20
398.0136
0
VERTEX
8
0
10
345.5794
20
398.0526
0
VERTEX
8
0
10
321.2820
20
398.1143
0
VERTEX
8
0
10
300.0586
20
398.1959
0
VERTEX
8
0
10
282.4973
20
398.2947
0
VERTEX
8
0
10
269.1863
20
398.4080
0
VERTEX
8
0
10
260.7135
20
398.5330
0
VERTEX
8
0
10
257.6670
20
398.6670
0
SEQEND
0
POLYLINE
8
0
66
1
70
1
0
VERTEX
8
0
10
570.3740
20
543.7070
0
VERTEX
8
0
10
563.4479
20
551.2549
0
VERTEX
8
0
10
544.5796
20
570.5611
0
VERTEX
8
0
10
517.7052
20
597.6912
0
VERTEX
8
0
10
486.7607
20
628.7109
0
VERTEX
8
0
10
455.6823
20
659.6859
0
VERTEX
8
0
10
428.4060
20
686.6820
0
VERTEX
8
0
10
408.8679
20
705.7648
0
VERTEX
8
0
10
401.0040
20
713.0000
0
VERTEX
8
0
10
393.2253
20
705.8229
0
VERTEX
8
0
10
373.8378
20
686.8860
0
VERTEX
8
0
10
346.7391
20
660.0812
0
VERTEX
8
0
10
315.8270
20
629.3003
0
VERTEX
8
0
10
284.9993
20
598.4351
0
VERTEX
8
0
10
258.1538
20
571.3774
0
VERTEX
8
0
10
239.1881
20
552.0191
0
VERTEX
8
0
10
232.0000
20
544.2520
0
VERTEX
8
0
10
233.7355
20
543.9117
0
VERTEX
8
0
10
239.4577
20
543.6353
0
VERTEX
8
0
10
249.9401
20
543.4173
0
VERTEX
8
0
10
265.9565
20
543.2518
0
VERTEX
8
0
10
288.2804
20
543.1330
0
VERTEX
8
0
10
317.6853
20
543.0553
0
VERTEX
8
0
10
354.9450
20
543.0129
0
VERTEX
8
0
10
400.8330
20
543.0000
0
VERTEX
8
0
10
434.7627
20
543.0144
0
VERTEX
8
0
10
466.4440
20
543.0558
0
VERTEX
8
0
10
495.1814
20
543.1211
0
VERTEX
8
0
10
520.2798
20
543.2076
0
VERTEX
8
0
10
541.0435
20
543.3124
0
VERTEX
8
0
10
556.7774
20
543.4324
0
VERTEX
8
0
10
566.7860
20
543.5649
0
VERTEX
8
0
10
570.3740
20
543.7070
0
SEQEND
0
ENDSEC
0
EOF
